<svg id="Capa_1" enable-background="new 0 0 497 497" height="512" viewBox="0 0 497 497" width="512" xmlns="http://www.w3.org/2000/svg"><g id="_x3C_Group_x3E__20_"><path d="m454.266 430.392-419.234-2.702c-16.569 0-30-13.431-30-30l1.021-299.213c0-11.511.43-27.234 9.944-32.264 4.18-2.21 8.945-3.462 14.003-3.462h437c16.569 0 30 13.431 30 30v311.495c0 5.059-1.252 9.825-3.463 14.006-5.031 9.513-27.761 12.14-39.271 12.14z" fill="#df646e"/><path d="m493.53 418.249c-5.02 9.51-15.02 16-26.53 16h-437c-16.57 0-30-13.43-30-30v-311.5c0-11.51 6.48-21.51 16-26.53v338.03c0 7.72 6.28 14 14 14z" fill="#dc4955"/><path d="m42.691 396.18 411.574 4.085c2.761 0 5-2.239 5-5l7.613-11.136v-286.257c0-2.761-2.239-5-5-5h-411.758l-10.088 12.35c-2.761 0-5 2.239-5 5l2.66 280.957c-.001 2.762 2.238 5.001 4.999 5.001z" fill="#f7f9fa"/><path d="m466.88 384.129v15c0 2.761-2.239 5-5 5h-426.76c-2.761 0-5-2.239-5-5v-301.26c0-2.761 2.239-5 5-5h15v287.26c0 2.209 1.791 4 4 4z" fill="#e9edf1"/><g><g fill="#df646e"><path d="m180.595 274.808c4.142 0 7.5-3.358 7.5-7.5s-3.358-7.5-7.5-7.5h-40.659c-4.142 0-7.5 3.358-7.5 7.5v100.319c0 4.142 3.358 7.5 7.5 7.5s7.5-3.358 7.5-7.5v-43.609h29.929c4.142 0 7.5-3.358 7.5-7.5s-3.358-7.5-7.5-7.5h-29.929v-34.209h33.159z"/><path d="m267.215 360.036h-34.693v-35.068h31.582c4.142 0 7.5-3.358 7.5-7.5s-3.358-7.5-7.5-7.5h-31.582v-35.068h34.693c4.142 0 7.5-3.358 7.5-7.5s-3.358-7.5-7.5-7.5h-42.193c-4.142 0-7.5 3.358-7.5 7.5v100.136c0 4.142 3.358 7.5 7.5 7.5h42.193c4.142 0 7.5-3.358 7.5-7.5s-3.358-7.5-7.5-7.5z"/><path d="m357.064 360.036h-34.693v-35.068h31.582c4.142 0 7.5-3.358 7.5-7.5s-3.358-7.5-7.5-7.5h-31.582v-35.068h34.693c4.142 0 7.5-3.358 7.5-7.5s-3.358-7.5-7.5-7.5h-42.193c-4.142 0-7.5 3.358-7.5 7.5v100.136c0 4.142 3.358 7.5 7.5 7.5h42.193c4.142 0 7.5-3.358 7.5-7.5s-3.358-7.5-7.5-7.5z"/></g><g><g><path d="m139.539 237.189c-4.142 0-7.5-3.358-7.5-7.5v-100.131c0-3.282 2.134-6.183 5.268-7.16 3.134-.976 6.539.197 8.403 2.898l56.439 81.728-.75-77.581c-.04-4.142 3.285-7.532 7.427-7.572h.074c4.108 0 7.458 3.31 7.498 7.427l.938 96.938c0 4.581-2.454 8.261-6.252 9.447-3.679 1.15-7.608-.352-10.013-3.824l-54.032-78.242v76.072c0 4.142-3.358 7.5-7.5 7.5z" fill="#df646e"/></g><path d="m307.302 237.189c-31.793 0-57.659-25.866-57.659-57.66s25.866-57.659 57.659-57.659 57.659 25.866 57.659 57.659-25.865 57.66-57.659 57.66zm0-100.319c-23.522 0-42.659 19.137-42.659 42.659s19.137 42.66 42.659 42.66 42.659-19.137 42.659-42.66-19.136-42.659-42.659-42.659z" fill="#df646e"/></g></g></g></svg>