<?xml version="1.0" encoding="iso-8859-1"?>
<!-- Generator: Adobe Illustrator 19.0.0, SVG Export Plug-In . SVG Version: 6.00 Build 0)  -->
<svg version="1.1" id="Layer_1" xmlns="http://www.w3.org/2000/svg" xmlns:xlink="http://www.w3.org/1999/xlink" x="0px" y="0px"
	 viewBox="0 0 508 508" style="enable-background:new 0 0 508 508;" xml:space="preserve">
<path style="fill:#54B265;" d="M502,129.6C502,112,488,98,470.4,98H33.6C16,98,2,112,2,129.6v252.8C2,400,16,414,33.6,414h436.8
	c17.6,0,31.6-14,31.6-31.6L502,129.6L502,129.6z"/>
<g>
	<path style="fill:#F4EFEF;" d="M366.4,141.2c-4.8-4.8-12-4.8-16.8,0l-198,198c-4.8,4.8-4.8,12,0,16.8c2.4,2.4,5.2,3.6,8.4,3.6
		s6-1.2,8.4-3.6l198-198C370.8,153.6,370.8,146,366.4,141.2z"/>
	<path style="fill:#F4EFEF;" d="M324,264.4c-27.2,0-49.6,22-49.6,49.6c0,27.2,22,49.2,49.6,49.2c27.2,0,49.6-22,49.6-49.2
		C373.2,286.8,351.2,264.4,324,264.4z M324,339.6c-14,0-25.6-11.6-25.6-25.6s11.6-25.6,25.6-25.6s25.6,11.6,25.6,25.6
		S338,339.6,324,339.6z"/>
	<path style="fill:#F4EFEF;" d="M193.2,134c-27.2,0-49.2,22-49.2,49.6c0,27.2,22,49.2,49.2,49.2s49.6-22,49.6-49.2
		C242.8,156,220.8,134,193.2,134z M193.2,209.2c-14,0-25.6-11.6-25.6-25.6s11.6-25.6,25.6-25.6s25.6,11.6,25.6,25.6
		C219.2,197.6,207.6,209.2,193.2,209.2z"/>
</g>
<path d="M160,363.6c-4.4,0-8.4-1.6-11.2-4.8c-2.8-2.8-4.8-6.8-4.8-11.2c0-4.4,1.6-8.4,4.8-11.2l198-198c6-6,16.4-6,22.4,0
	c3.2,2.8,4.8,6.8,4.8,11.2c0,4.4-1.6,8.4-4.8,11.2l-198,198C168.4,361.6,164.4,363.6,160,363.6z M358,142c-2,0-4,0.8-5.6,2.4
	l-198,198c-1.6,1.6-2.4,3.6-2.4,5.6s0.8,4,2.4,5.6c2.8,2.8,8,2.8,11.2,0l198-198c1.6-1.6,2.4-3.6,2.4-5.6s-0.8-4-2.4-5.6
	S360,142,358,142z"/>
<path d="M193.2,236.8c-29.6,0-53.6-24-53.6-53.2c0-29.6,24-53.6,53.6-53.6s53.6,24,53.6,53.6C246.8,212.8,222.8,236.8,193.2,236.8z
	 M193.2,138c-25.2,0-45.6,20.4-45.6,45.6s20.4,45.2,45.6,45.2c25.2,0,45.6-20.4,45.6-45.2C238.8,158.4,218.4,138,193.2,138z
	 M193.2,213.2c-16.4,0-29.6-13.2-29.6-29.6s13.2-29.6,29.6-29.6c2.4,0,4,1.6,4,4s-1.6,4-4,4c-12,0-21.6,9.6-21.6,21.6
	s9.6,21.6,21.6,21.6s21.6-9.6,21.6-21.6c0-2.4,1.6-4,4-4s4,1.6,4,4C223.2,199.6,209.6,213.2,193.2,213.2z"/>
<path d="M472.4,416H35.6C16,416,0,400,0,380.4V127.6C0,108,16,92,35.6,92h436.8c19.6,0,35.6,16,35.6,35.6v252.8
	C508,400,492,416,472.4,416z M35.6,100C20.4,100,8,112.4,8,127.6v252.8C8,395.6,20.4,408,35.6,408h436.8c15.2,0,27.6-12.4,27.6-27.6
	V127.6c0-15.2-12.4-27.6-27.6-27.6H35.6z"/>
<path d="M324,367.2c-29.6,0-53.2-24-53.2-53.2c0-29.6,24-53.6,53.2-53.6c29.6,0,53.6,24,53.6,53.6
	C377.2,343.6,353.2,367.2,324,367.2z M324,268.4c-25.2,0-45.2,20.4-45.2,45.6s20.4,45.2,45.2,45.2c25.2,0,45.6-20.4,45.6-45.2
	C369.2,288.8,348.8,268.4,324,268.4z M324,343.6c-16.4,0-29.6-13.2-29.6-29.6s13.2-29.6,29.6-29.6c2.4,0,4,1.6,4,4s-1.6,4-4,4
	c-12,0-21.6,9.6-21.6,21.6s9.6,21.6,21.6,21.6s21.6-9.6,21.6-21.6c0-2.4,1.6-4,4-4s4,1.6,4,4C353.6,330.4,340.4,343.6,324,343.6z"/>
<g>
</g>
<g>
</g>
<g>
</g>
<g>
</g>
<g>
</g>
<g>
</g>
<g>
</g>
<g>
</g>
<g>
</g>
<g>
</g>
<g>
</g>
<g>
</g>
<g>
</g>
<g>
</g>
<g>
</g>
</svg>
