<?xml version="1.0" encoding="iso-8859-1"?>
<!-- Generator: Adobe Illustrator 19.0.0, SVG Export Plug-In . SVG Version: 6.00 Build 0)  -->
<svg xmlns="http://www.w3.org/2000/svg" xmlns:xlink="http://www.w3.org/1999/xlink" version="1.1" id="Layer_1" x="0px" y="0px" viewBox="0 0 508.148 508.148" style="enable-background:new 0 0 508.148 508.148;" xml:space="preserve" width="512" height="512">
<g>
	<g>
		<g id="XMLID_13_">
			<g>
				<path style="fill:#FF7857;" d="M204.328,306.2c18.533-62.359,76.358-107.856,144.763-107.856      c68.961,0,127.185,46.292,145.24,109.447c3.818,13.283,5.886,27.203,5.886,41.679c0,83.438-67.689,151.126-151.126,151.126      c-14.476,0-28.396-2.068-41.679-5.886c-63.155-18.056-109.447-76.279-109.447-145.24      C197.965,334.437,200.192,319.961,204.328,306.2z"/>
				<path style="fill:#7CD4BA;" d="M477.31,150.143l-0.954,0.477l-31.816-15.908h-15.908l-31.816,31.816l-31.816-7.954      l-15.908-15.908v-39.77l-39.77-7.954h-79.54l-7.954-23.862l-23.862-23.862l7.954-31.816l-0.636-3.182      c15.669-3.182,31.816-4.772,48.36-4.772C352.67,7.448,438.096,65.91,477.31,150.143z"/>
				<path style="fill:#8CE0FF;" d="M500.217,254.022c0,18.453-1.988,36.429-5.886,53.769      c-18.056-63.155-76.279-109.447-145.24-109.447c-68.404,0-126.23,45.497-144.763,107.856l-22.271-4.454l-47.724-47.724V230.16      l-15.908-39.77H94.563H62.747l-7.954-31.816H30.931l-4.454-0.557C57.815,83.886,124.47,28.287,205.283,12.22l0.636,3.182      l-7.954,31.816l23.862,23.862l7.954,23.862h79.54l39.77,7.954v39.77l15.908,15.908l31.816,7.954l31.816-31.816h15.908      l31.816,15.908l0.954-0.477C492.025,181.72,500.217,216.877,500.217,254.022z"/>
				<path style="fill:#7CD4BA;" d="M307.412,494.71c-17.34,3.897-35.316,5.886-53.769,5.886      c-136.173,0-246.574-110.402-246.574-246.574c0-34.043,6.92-66.495,19.408-96.005l4.454,0.557h23.862l7.954,31.816h31.816      h23.862l15.908,39.77v23.862l47.724,47.724l22.271,4.454c-4.136,13.76-6.363,28.237-6.363,43.27      C197.965,418.431,244.257,476.655,307.412,494.71z"/>
				<g>
					<path style="fill:#3FC3BA;" d="M201.063,35.01c25.143-13.155,52.869-22.013,82.23-25.643       c-9.721-1.167-19.57-1.919-29.604-1.919c-16.544,0-32.691,1.591-48.36,4.772l0.636,3.182L201.063,35.01z"/>
					<path style="fill:#3FC3BA;" d="M309.333,492.541c-132.125-2.15-238.586-109.858-238.586-242.496       c0-20.587,2.586-40.568,7.413-59.655H62.793l-7.954-31.816H30.977l-4.454-0.557c-12.488,29.51-19.408,61.962-19.408,96.005       c0,136.173,110.402,246.574,246.574,246.574c19.169,0,37.782-2.148,55.678-6.284v-1.67L309.333,492.541z"/>
					<path style="fill:#00ACF0;" d="M54.839,158.574l7.954,31.816H78.16c17.085-67.56,62.524-123.787,122.904-155.38l4.902-19.608       l-0.636-3.182C124.516,28.287,57.862,83.886,26.523,158.017l4.454,0.557H54.839z"/>
					<path style="fill:#8CE0FF;" d="M301.333,492.541l0.034,0.101v1.67c2.278-0.528,4.518-1.15,6.771-1.74       c-0.935,0.011-1.857,0.07-2.794,0.07C303.999,492.642,302.673,492.563,301.333,492.541z"/>
				</g>
				<g>
					<path style="fill:#FF5023;" d="M293.413,349.47c0-15.033,2.227-29.51,6.363-43.27c14.01-47.14,50.491-84.605,97.004-100.103       c-15-4.995-31.019-7.753-47.689-7.753c-68.404,0-126.23,45.497-144.763,107.856c-4.136,13.76-6.363,28.237-6.363,43.27       c0,68.961,46.292,127.184,109.447,145.24c13.283,3.818,27.203,5.886,41.679,5.886c16.729,0,32.774-2.83,47.818-7.854       C336.846,472.807,293.413,416.227,293.413,349.47z"/>
				</g>
			</g>
		</g>
	</g>
	<g>
		<g id="XMLID_42_">
			<g>
				<g>
					<path style="fill:#FFFFFF;" d="M108.639,392.361l-11.385,9.766c2.025,2.363,50.366,57.974,116.119,66.193l1.861-14.885       C155.328,445.947,109.099,392.896,108.639,392.361z"/>
					<rect x="182.488" y="167.034" style="fill:#FFFFFF;" width="15.908" height="15"/>
					<rect x="198.396" y="182.942" style="fill:#FFFFFF;" width="15.907" height="15"/>
					<polygon style="fill:#FFFFFF;" points="391.942,336.265 402.55,346.872 439.669,309.752 402.55,272.633 391.943,283.24        410.956,302.252 301.798,302.252 301.798,317.252 410.956,317.252      "/>
					<polygon style="fill:#FFFFFF;" points="315.056,362.78 304.448,352.173 267.33,389.292 304.448,426.412 315.056,415.806        296.043,396.792 405.2,396.792 405.2,381.792 296.043,381.792      "/>
				</g>
				<g>
					<path style="fill:#231F20;" d="M508.148,254.074c0-37.413-7.943-73.429-23.608-107.045       c-16.049-34.476-40.147-65.479-69.689-89.657l-9.5,11.607c22.272,18.229,41.244,40.583,55.68,65.429l-14.289-7.145h-20.785       l-31.011,31.011l-25.681-6.421l-12.242-12.242V96.8l-46.528-9.306h-74.877l-6.804-20.414l-22.111-22.111l6.625-26.495       C226.552,16.171,240.227,15,254.074,15c46.418,0,91.436,13.332,130.187,38.556l8.184-12.572       C351.252,14.172,303.404,0,254.074,0c-16.994,0-33.767,1.656-49.823,4.916c-40.617,8.076-79.087,26.293-111.25,52.683       c-31.814,26.103-57.058,59.835-73,97.548C6.729,186.507,0,219.791,0,254.074c0,63.975,23.86,125.102,67.186,172.119       l11.031-10.164C37.451,371.788,15,314.271,15,254.074c0-30.398,5.624-59.955,16.718-87.948h17.651l7.954,31.816h56.456       l13.485,33.714v25.524l51.527,51.526l16.648,3.33c-3,12.263-4.543,24.833-4.543,37.486c0,35.13,11.268,68.419,32.585,96.269       c14.882,19.443,34.238,35.241,56.04,46.016c-8.397,0.885-16.896,1.341-25.447,1.341c-59.364,0-116.288-21.909-160.285-61.692       l-10.061,11.127c46.76,42.28,107.257,65.565,170.346,65.565c18.208,0,36.214-1.921,53.56-5.677       c13.682,3.754,27.761,5.677,41.888,5.677c87.467,0,158.626-71.159,158.626-158.626c0-14.13-1.924-28.212-5.677-41.889       C506.228,290.287,508.148,272.281,508.148,254.074z M349.522,493.148c-13.366,0-26.692-1.882-39.618-5.597       c-29.361-8.395-55.824-26.464-74.512-50.878c-19.297-25.21-29.496-55.347-29.496-87.151c0-13.935,2.034-27.767,6.053-41.134       c10.768-36.235,36.116-67.355,69.546-85.381l-7.119-13.203c-34.897,18.817-61.813,50.569-74.697,87.782l-13.493-2.698       l-43.922-43.921v-22.2l-18.329-45.825H69.033l-7.954-31.816H38.287c15.062-31.497,37.092-59.667,64.228-81.931       c27.556-22.61,60.034-38.816,94.488-47.279l-6.913,27.654l25.611,25.612l9.104,27.312h84.202l33.014,6.603v36.728       l19.574,19.574l37.95,9.487l32.622-32.622H443.2l29.352,14.676c13.656,30.595,20.596,63.249,20.596,97.134       c0,8.551-0.457,17.05-1.341,25.448c-10.777-21.805-26.574-41.159-46.016-56.041c-27.85-21.317-61.139-32.585-96.269-32.585       c-17.42,0-34.544,2.81-50.896,8.35l4.814,14.207c14.798-5.015,30.303-7.557,46.082-7.557c31.805,0,61.941,10.199,87.151,29.496       c24.414,18.688,42.483,45.15,50.881,74.521c3.712,12.916,5.594,26.242,5.594,39.608       C493.148,428.718,428.718,493.148,349.522,493.148z"/>
					<rect x="389.292" y="103.402" style="fill:#231F20;" width="15.908" height="15"/>
					<rect x="373.384" y="87.494" style="fill:#231F20;" width="15.908" height="15"/>
					<rect x="79.086" y="373.838" style="fill:#231F20;" width="15.908" height="15"/>
					<rect x="102.948" y="135.218" style="fill:#231F20;" width="15.908" height="15"/>
					<rect x="118.856" y="119.31" style="fill:#231F20;" width="15.907" height="15"/>
					<rect x="293.844" y="143.172" style="fill:#231F20;" width="15.908" height="15"/>
					<rect x="262.028" y="143.172" style="fill:#231F20;" width="15.908" height="15"/>
					<rect x="269.982" y="302.252" style="fill:#231F20;" width="15.908" height="15"/>
					<rect x="421.108" y="381.792" style="fill:#231F20;" width="15.908" height="15"/>
				</g>
			</g>
		</g>
	</g>
</g>















</svg>
