<?xml version="1.0" encoding="UTF-8" standalone="no"?>
<svg
   xmlns:dc="http://purl.org/dc/elements/1.1/"
   xmlns:cc="http://creativecommons.org/ns#"
   xmlns:rdf="http://www.w3.org/1999/02/22-rdf-syntax-ns#"
   xmlns:svg="http://www.w3.org/2000/svg"
   xmlns="http://www.w3.org/2000/svg"
   xmlns:sodipodi="http://sodipodi.sourceforge.net/DTD/sodipodi-0.dtd"
   xmlns:inkscape="http://www.inkscape.org/namespaces/inkscape"
   width="131.78438mm"
   height="42.302525mm"
   viewBox="0 0 131.78438 42.302525"
   version="1.1"
   id="svg8"
   inkscape:version="1.0.2 (e86c870, 2021-01-15)"
   sodipodi:docname="logo.svg">
  <defs
     id="defs2">
    <clipPath
       clipPathUnits="userSpaceOnUse"
       id="clipPath26">
      <path
         d="M 0,500 H 500 V 0 H 0 Z"
         id="path24" />
    </clipPath>
    <clipPath
       clipPathUnits="userSpaceOnUse"
       id="clipPath34">
      <path
         d="M 44.8213,471.356 H 479.072 V 66.8631 H 44.8213 Z"
         id="path32" />
    </clipPath>
    <clipPath
       clipPathUnits="userSpaceOnUse"
       id="clipPath38">
      <path
         d="M 44.8213,444 H 479.072 V 66.8631 H 44.8213 Z"
         id="path36" />
    </clipPath>
    <clipPath
       clipPathUnits="userSpaceOnUse"
       id="clipPath42">
      <path
         d="m 203.865,469.684 h 26.586 v -26.586 h -26.586 z"
         id="path40" />
    </clipPath>
    <clipPath
       clipPathUnits="userSpaceOnUse"
       id="clipPath46">
      <path
         d="M 389.923,471.356 H 403.64 V 457.639 H 389.923 Z"
         id="path44" />
    </clipPath>
    <clipPath
       clipPathUnits="userSpaceOnUse"
       id="clipPath50">
      <path
         d="M 145.468,435.823 H 163.85 V 417.442 H 145.468 Z"
         id="path48" />
    </clipPath>
    <clipPath
       clipPathUnits="userSpaceOnUse"
       id="clipPath110">
      <path
         d="M 20.1235,453.67 H 476.129 V 53.4958 H 20.1235 Z"
         id="path108" />
    </clipPath>
    <clipPath
       clipPathUnits="userSpaceOnUse"
       id="clipPath114">
      <path
         d="M 20.1235,453.67 H 74.0916 V 403.764 H 20.1235 Z"
         id="path112" />
    </clipPath>
    <clipPath
       clipPathUnits="userSpaceOnUse"
       id="clipPath118">
      <path
         d="M 43.7525,100.001 H 88.473 V 53.4958 H 43.7525 Z"
         id="path116" />
    </clipPath>
    <clipPath
       clipPathUnits="userSpaceOnUse"
       id="clipPath122">
      <path
         d="M 33.4164,443.074 H 476.129 V 114.815 H 33.4164 Z"
         id="path120" />
    </clipPath>
    <clipPath
       clipPathUnits="userSpaceOnUse"
       id="clipPath126">
      <path
         d="M 52.1839,424.663 H 455.953 V 78.8895 H 52.1839 Z"
         id="path124" />
    </clipPath>
    <clipPath
       clipPathUnits="userSpaceOnUse"
       id="clipPath186">
      <path
         d="m 463.151,115.921 h 9 v -9 h -9 z"
         id="path184" />
    </clipPath>
    <clipPath
       clipPathUnits="userSpaceOnUse"
       id="clipPath202">
      <path
         d="m 314.316,471.356 h 9.501 v -9.501 h -9.501 z"
         id="path200" />
    </clipPath>
    <clipPath
       clipPathUnits="userSpaceOnUse"
       id="clipPath218">
      <path
         d="m 101.015,63.4221 h 9 v -9 h -9 z"
         id="path216" />
    </clipPath>
    <clipPath
       clipPathUnits="userSpaceOnUse"
       id="clipPath234">
      <path
         d="m 377.738,61.4989 h 7 v -7 h -7 z"
         id="path232" />
    </clipPath>
    <clipPath
       clipPathUnits="userSpaceOnUse"
       id="clipPath250">
      <path
         d="m 95.2399,439.323 h 7.0001 v -7 h -7.0001 z"
         id="path248" />
    </clipPath>
    <clipPath
       clipPathUnits="userSpaceOnUse"
       id="clipPath266">
      <path
         d="m 69.3112,398.731 h 3 v -3 h -3 z"
         id="path264" />
    </clipPath>
    <clipPath
       clipPathUnits="userSpaceOnUse"
       id="clipPath282">
      <path
         d="m 132.278,471.804 h 4.239 v -4.239 h -4.239 z"
         id="path280" />
    </clipPath>
    <clipPath
       clipPathUnits="userSpaceOnUse"
       id="clipPath298">
      <path
         d="m 474.01,276.644 h 4.239 v -4.239 h -4.239 z"
         id="path296" />
    </clipPath>
    <clipPath
       clipPathUnits="userSpaceOnUse"
       id="clipPath314">
      <path
         d="m 454.19,405.298 h 3.603 v -3.604 h -3.603 z"
         id="path312" />
    </clipPath>
    <clipPath
       clipPathUnits="userSpaceOnUse"
       id="clipPath330">
      <path
         d="m 424.828,457.465 h 13.724 V 443.74 h -13.724 z"
         id="path328" />
    </clipPath>
    <clipPath
       clipPathUnits="userSpaceOnUse"
       id="clipPath346">
      <path
         d="M 19.1465,244.94 H 30.1188 V 233.967 H 19.1465 Z"
         id="path344" />
    </clipPath>
    <clipPath
       clipPathUnits="userSpaceOnUse"
       id="clipPath362">
      <path
         d="M 126.932,376.32 H 376.943 V 122.18 H 126.932 Z"
         id="path360" />
    </clipPath>
    <clipPath
       clipPathUnits="userSpaceOnUse"
       id="clipPath366">
      <path
         d="M 127.714,376.32 H 376.943 V 127.091 H 127.714 Z"
         id="path364" />
    </clipPath>
    <clipPath
       clipPathUnits="userSpaceOnUse"
       id="clipPath370">
      <path
         d="M 127.714,376.32 H 376.943 V 127.091 H 127.714 Z"
         id="path368" />
    </clipPath>
    <clipPath
       clipPathUnits="userSpaceOnUse"
       id="clipPath374">
      <path
         d="m 322.413,364.253 h 52.558 v -52.558 h -52.558 z"
         id="path372" />
    </clipPath>
    <clipPath
       clipPathUnits="userSpaceOnUse"
       id="clipPath378">
      <path
         d="m 126.932,206.401 h 62.654 v -78.256 h -62.654 z"
         id="path376" />
    </clipPath>
    <clipPath
       clipPathUnits="userSpaceOnUse"
       id="clipPath446">
      <path
         d="M 0,500 H 500 V 0 H 0 Z"
         id="path444" />
    </clipPath>
    <clipPath
       clipPathUnits="userSpaceOnUse"
       id="clipPath774">
      <path
         d="M 136.696,440.267 H 257.154 V 406.762 H 136.696 Z"
         id="path772" />
    </clipPath>
    <clipPath
       clipPathUnits="userSpaceOnUse"
       id="clipPath978">
      <path
         d="M 192.829,332.414 H 352.735 V 170.971 H 192.829 Z"
         id="path976" />
    </clipPath>
    <clipPath
       clipPathUnits="userSpaceOnUse"
       id="clipPath1102">
      <path
         d="M 0,500 H 500 V 0 H 0 Z"
         id="path1100" />
    </clipPath>
  </defs>
  <sodipodi:namedview
     id="base"
     pagecolor="#ffffff"
     bordercolor="#666666"
     borderopacity="1.0"
     inkscape:pageopacity="0.0"
     inkscape:pageshadow="2"
     inkscape:zoom="1"
     inkscape:cx="316.7054"
     inkscape:cy="350.40558"
     inkscape:document-units="mm"
     inkscape:current-layer="text6299"
     inkscape:document-rotation="0"
     showgrid="false"
     inkscape:window-width="2560"
     inkscape:window-height="1346"
     inkscape:window-x="-11"
     inkscape:window-y="-11"
     inkscape:window-maximized="1"
     fit-margin-top="5"
     fit-margin-left="5"
     fit-margin-right="5"
     fit-margin-bottom="5"
     scale-x="1"
     lock-margins="true"
     inkscape:pagecheckerboard="true"
     showguides="false">
    <inkscape:grid
       type="xygrid"
       id="grid6301"
       originx="-21.205029"
       originy="-55.788528" />
    <sodipodi:guide
       position="-166.86483,-72.055806"
       orientation="1,0"
       id="guide897" />
  </sodipodi:namedview>
  <metadata
     id="metadata5">
    <rdf:RDF>
      <cc:Work
         rdf:about="">
        <dc:format>image/svg+xml</dc:format>
        <dc:type
           rdf:resource="http://purl.org/dc/dcmitype/StillImage" />
        <dc:title />
      </cc:Work>
    </rdf:RDF>
  </metadata>
  <g
     inkscape:label="图层 1"
     inkscape:groupmode="layer"
     id="layer1"
     transform="translate(-21.205032,-55.788524)">
    <g
       aria-label="Kyber-Pay"
       id="text5472"
       style="font-style:normal;font-variant:normal;font-weight:800;font-stretch:normal;font-size:22.5778px;line-height:1.25;font-family:Montserrat;-inkscape-font-specification:'Montserrat Ultra-Bold';fill:#1c2a44;fill-opacity:1;stroke:none;stroke-width:0.264583">
      <path
         d="m 36.816599,77.541252 h 5.192894 l -6.795918,-8.805342 6.457251,-6.999118 h -4.921961 l -6.118584,6.57014 v -6.57014 h -4.425249 v 15.80446 h 4.425249 v -3.951115 l 1.670757,-1.783646 z"
         style="font-style:normal;font-variant:normal;font-weight:800;font-stretch:normal;font-size:22.5778px;font-family:Montserrat;-inkscape-font-specification:'Montserrat Ultra-Bold';fill:#1c2a44;fill-opacity:1;stroke-width:0.264583"
         id="path898" />
      <path
         d="m 50.905088,65.304084 -3.025425,7.473252 -3.002848,-7.473252 h -4.402671 l 5.23805,12.395213 c -0.361245,0.722489 -0.835379,1.038579 -1.670757,1.038579 -0.677334,0 -1.399824,-0.270934 -1.896536,-0.72249 l -1.490135,3.002847 c 0.812801,0.677334 2.257781,1.106313 3.544715,1.106313 2.415825,0 4.222049,-0.92569 5.508984,-4.086582 l 5.283205,-12.73388 z"
         style="font-style:normal;font-variant:normal;font-weight:800;font-stretch:normal;font-size:22.5778px;font-family:Montserrat;-inkscape-font-specification:'Montserrat Ultra-Bold';fill:#1c2a44;fill-opacity:1;stroke-width:0.264583"
         id="path900" />
      <path
         d="m 63.796989,65.100884 c -1.422402,0 -2.57387,0.4064 -3.409248,1.264357 v -5.576717 h -4.289782 v 16.752728 h 4.086581 v -1.219201 c 0.812801,0.970845 2.009425,1.422401 3.612449,1.422401 3.318936,0 6.005695,-2.438402 6.005695,-6.344362 0,-3.883381 -2.686759,-6.299206 -6.005695,-6.299206 z m -0.903112,9.23432 c -1.44498,0 -2.57387,-1.061156 -2.57387,-2.935114 0,-1.851379 1.12889,-2.889958 2.57387,-2.889958 1.444979,0 2.573869,1.038579 2.573869,2.889958 0,1.873958 -1.12889,2.935114 -2.573869,2.935114 z"
         style="font-style:normal;font-variant:normal;font-weight:800;font-stretch:normal;font-size:22.5778px;font-family:Montserrat;-inkscape-font-specification:'Montserrat Ultra-Bold';fill:#1c2a44;fill-opacity:1;stroke-width:0.264583"
         id="path902" />
      <path
         d="m 84.297623,71.445246 c 0,-4.041426 -2.935114,-6.344362 -6.547562,-6.344362 -3.860804,0 -6.728185,2.619025 -6.728185,6.299206 0,3.657604 2.822225,6.344362 7.179741,6.344362 2.325513,0 4.041426,-0.677334 5.215472,-1.986846 l -2.257781,-2.348091 c -0.835378,0.722489 -1.625601,1.061156 -2.822225,1.061156 -1.580446,0 -2.641602,-0.722489 -3.002847,-1.964268 h 8.895653 c 0.02258,-0.338667 0.06773,-0.745068 0.06773,-1.061157 z m -6.524985,-3.296359 c 1.332091,0 2.280358,0.812801 2.506136,2.099735 h -5.012272 c 0.248356,-1.286934 1.174046,-2.099735 2.506136,-2.099735 z"
         style="font-style:normal;font-variant:normal;font-weight:800;font-stretch:normal;font-size:22.5778px;font-family:Montserrat;-inkscape-font-specification:'Montserrat Ultra-Bold';fill:#1c2a44;fill-opacity:1;stroke-width:0.264583"
         id="path904" />
      <path
         d="m 90.371014,66.771641 v -1.467557 h -4.086582 v 12.237168 h 4.289782 V 71.91938 c 0,-2.144891 1.196624,-3.025426 2.935115,-3.025426 0.316089,0 0.587022,0.02258 0.970845,0.06773 v -3.860804 c -1.806224,0 -3.228625,0.564445 -4.10916,1.670757 z"
         style="font-style:normal;font-variant:normal;font-weight:800;font-stretch:normal;font-size:22.5778px;font-family:Montserrat;-inkscape-font-specification:'Montserrat Ultra-Bold';fill:#1c2a44;fill-opacity:1;stroke-width:0.264583"
         id="path906" />
      <path
         d="m 95.789642,72.754758 h 6.592718 v -3.296359 h -6.592718 z"
         style="font-style:normal;font-variant:normal;font-weight:800;font-stretch:normal;font-size:22.5778px;font-family:Montserrat;-inkscape-font-specification:'Montserrat Ultra-Bold';fill:#1c2a44;fill-opacity:1;stroke-width:0.264583"
         id="path908" />
      <path
         d="m 112.2714,61.736792 h -7.22489 v 15.80446 h 4.4704 v -4.131737 h 2.75449 c 4.31236,0 7.0217,-2.235203 7.0217,-5.825073 0,-3.612448 -2.70934,-5.84765 -7.0217,-5.84765 z m -0.27093,8.150586 h -2.48356 v -4.628449 h 2.48356 c 1.85138,0 2.77707,0.857956 2.77707,2.325513 0,1.444979 -0.92569,2.302936 -2.77707,2.302936 z"
         style="font-style:normal;font-variant:normal;font-weight:800;font-stretch:normal;font-size:22.5778px;font-family:Montserrat;-inkscape-font-specification:'Montserrat Ultra-Bold';fill:#1c2a44;fill-opacity:1;stroke-width:0.264583"
         id="path910" />
      <path
         d="m 126.35991,65.100884 c -1.91911,0 -3.99627,0.496712 -5.39609,1.422401 l 1.44498,2.912537 c 0.83538,-0.654757 2.14489,-1.061157 3.31893,-1.061157 1.69334,0 2.52872,0.699912 2.59645,1.941691 h -2.4384 c -3.79307,0 -5.44125,1.399824 -5.44125,3.657604 0,2.122313 1.6256,3.770492 4.56071,3.770492 1.78365,0 3.00285,-0.6096 3.61245,-1.783646 v 1.580446 h 3.99627 v -6.795918 c 0,-3.883382 -2.28035,-5.64445 -6.25405,-5.64445 z m -0.15804,9.934232 c -1.016,0 -1.60303,-0.519289 -1.60303,-1.241779 0,-0.745067 0.49672,-1.241779 1.87396,-1.241779 h 1.85138 v 1.061157 c -0.33867,0.970845 -1.17404,1.422401 -2.12231,1.422401 z"
         style="font-style:normal;font-variant:normal;font-weight:800;font-stretch:normal;font-size:22.5778px;font-family:Montserrat;-inkscape-font-specification:'Montserrat Ultra-Bold';fill:#1c2a44;fill-opacity:1;stroke-width:0.264583"
         id="path912" />
      <path
         d="m 143.90282,65.304084 -3.02542,7.473252 -3.00285,-7.473252 h -4.40267 l 5.23805,12.395213 c -0.36125,0.722489 -0.83538,1.038579 -1.67076,1.038579 -0.67733,0 -1.39982,-0.270934 -1.89653,-0.72249 l -1.49014,3.002847 c 0.8128,0.677334 2.25778,1.106313 3.54472,1.106313 2.41582,0 4.22205,-0.92569 5.50898,-4.086582 l 5.28321,-12.73388 z"
         style="font-style:normal;font-variant:normal;font-weight:800;font-stretch:normal;font-size:22.5778px;font-family:Montserrat;-inkscape-font-specification:'Montserrat Ultra-Bold';fill:#1c2a44;fill-opacity:1;stroke-width:0.264583"
         id="path914" />
    </g>
    <g
       aria-label="Unleash the Force"
       id="text6299"
       style="font-style:normal;font-variant:normal;font-weight:normal;font-stretch:normal;font-size:11.2889px;line-height:1.25;font-family:Montserrat;-inkscape-font-specification:Montserrat;fill:#1c2a44;fill-opacity:1;stroke:none;stroke-width:0.264583">
      <path
         d="m 48.946597,93.091049 c 2.020713,0 3.239914,-1.174046 3.239914,-3.443115 v -4.526849 h -0.8128 v 4.492983 c 0,1.873957 -0.880535,2.731913 -2.427114,2.731913 -1.53529,0 -2.415825,-0.857956 -2.415825,-2.731913 v -4.492983 h -0.835378 v 4.526849 c 0,2.269069 1.23049,3.443115 3.251203,3.443115 z"
         style="font-style:normal;font-variant:normal;font-weight:normal;font-stretch:normal;font-size:11.2889px;font-family:Montserrat;-inkscape-font-specification:Montserrat;fill:#ff0024;fill-opacity:1;stroke-width:0.264583"
         id="path917" />
      <path
         d="m 57.560026,87.040198 c -1.02729,0 -1.828802,0.41769 -2.25778,1.140179 v -1.095023 h -0.767645 v 5.937961 h 0.801512 v -3.115736 c 0,-1.354668 0.801512,-2.144891 2.077158,-2.144891 1.12889,0 1.783646,0.643467 1.783646,1.896535 v 3.364092 h 0.801512 v -3.443114 c 0,-1.704624 -0.993423,-2.540003 -2.438403,-2.540003 z"
         style="font-style:normal;font-variant:normal;font-weight:normal;font-stretch:normal;font-size:11.2889px;font-family:Montserrat;-inkscape-font-specification:Montserrat;fill:#ff0024;fill-opacity:1;stroke-width:0.264583"
         id="path919" />
      <path
         d="m 62.177166,93.023315 h 0.801512 v -8.376364 h -0.801512 z"
         style="font-style:normal;font-variant:normal;font-weight:normal;font-stretch:normal;font-size:11.2889px;font-family:Montserrat;-inkscape-font-specification:Montserrat;fill:#ff0024;fill-opacity:1;stroke-width:0.264583"
         id="path921" />
      <path
         d="m 70.395474,90.054335 c 0,-1.783647 -1.207912,-3.014137 -2.878669,-3.014137 -1.670758,0 -2.901248,1.253068 -2.901248,3.014137 0,1.761068 1.264357,3.025425 3.115737,3.025425 0.936978,0 1.761068,-0.338667 2.291646,-0.970846 l -0.451556,-0.519289 c -0.451556,0.519289 -1.095023,0.778934 -1.817513,0.778934 -1.298223,0 -2.246491,-0.82409 -2.336802,-2.065869 h 4.967116 c 0,-0.09031 0.01129,-0.180622 0.01129,-0.248355 z m -2.878669,-2.325514 c 1.162756,0 2.009424,0.812801 2.111024,1.975558 h -4.21076 c 0.1016,-1.162757 0.948268,-1.975558 2.099736,-1.975558 z"
         style="font-style:normal;font-variant:normal;font-weight:normal;font-stretch:normal;font-size:11.2889px;font-family:Montserrat;-inkscape-font-specification:Montserrat;fill:#ff0024;fill-opacity:1;stroke-width:0.264583"
         id="path923" />
      <path
         d="m 73.940154,87.040198 c -0.936978,0 -1.817512,0.293512 -2.415824,0.801512 l 0.361245,0.598312 c 0.485422,-0.428978 1.207912,-0.699912 1.975557,-0.699912 1.106312,0 1.682046,0.553156 1.682046,1.569157 v 0.361245 h -1.885246 c -1.704624,0 -2.291647,0.767645 -2.291647,1.682046 0,1.02729 0.82409,1.727202 2.167469,1.727202 0.982134,0 1.682046,-0.372534 2.043291,-0.982134 v 0.925689 h 0.767645 v -3.680181 c 0,-1.535291 -0.869245,-2.302936 -2.404536,-2.302936 z m -0.282222,5.407384 c -0.948268,0 -1.501424,-0.428979 -1.501424,-1.117602 0,-0.6096 0.372534,-1.061156 1.524002,-1.061156 h 1.862668 v 0.970845 c -0.316089,0.778934 -0.982134,1.207913 -1.885246,1.207913 z"
         style="font-style:normal;font-variant:normal;font-weight:normal;font-stretch:normal;font-size:11.2889px;font-family:Montserrat;-inkscape-font-specification:Montserrat;fill:#ff0024;fill-opacity:1;stroke-width:0.264583"
         id="path925" />
      <path
         d="m 80.115163,93.07976 c 1.546579,0 2.449691,-0.666045 2.449691,-1.693335 0,-2.280358 -3.849515,-1.072446 -3.849515,-2.67547 0,-0.564445 0.474134,-0.982134 1.546579,-0.982134 0.609601,0 1.230491,0.146756 1.74978,0.508001 l 0.349956,-0.643468 c -0.496712,-0.338667 -1.33209,-0.553156 -2.099736,-0.553156 -1.512712,0 -2.348091,0.72249 -2.348091,1.693335 0,2.348092 3.849515,1.12889 3.849515,2.67547 0,0.587022 -0.462845,0.970845 -1.591735,0.970845 -0.835378,0 -1.63689,-0.293511 -2.111024,-0.666045 l -0.361245,0.632178 c 0.485423,0.41769 1.43369,0.733779 2.415825,0.733779 z"
         style="font-style:normal;font-variant:normal;font-weight:normal;font-stretch:normal;font-size:11.2889px;font-family:Montserrat;-inkscape-font-specification:Montserrat;fill:#ff0024;fill-opacity:1;stroke-width:0.264583"
         id="path927" />
      <path
         d="m 87.069109,87.040198 c -1.004712,0 -1.783646,0.395112 -2.223913,1.083735 v -3.476982 h -0.801512 v 8.376364 h 0.801512 v -3.115736 c 0,-1.354668 0.801512,-2.144891 2.077157,-2.144891 1.12889,0 1.783647,0.643467 1.783647,1.896535 v 3.364092 h 0.801512 v -3.443114 c 0,-1.704624 -0.993424,-2.540003 -2.438403,-2.540003 z"
         style="font-style:normal;font-variant:normal;font-weight:normal;font-stretch:normal;font-size:11.2889px;font-family:Montserrat;-inkscape-font-specification:Montserrat;fill:#ff0024;fill-opacity:1;stroke-width:0.264583"
         id="path929" />
      <path
         d="m 97.488733,92.086337 c -0.225778,0.2032 -0.553156,0.3048 -0.880534,0.3048 -0.666045,0 -1.02729,-0.383823 -1.02729,-1.083734 v -3.544715 h 1.806224 V 87.085354 H 95.580909 V 85.78713 h -0.801512 v 1.298224 H 93.71824 v 0.677334 h 1.061157 v 3.58987 c 0,1.095024 0.62089,1.727202 1.738491,1.727202 0.462845,0 0.936978,-0.135467 1.253068,-0.417689 z"
         style="font-style:normal;font-variant:normal;font-weight:normal;font-stretch:normal;font-size:11.2889px;font-family:Montserrat;-inkscape-font-specification:Montserrat;fill:#ff0024;fill-opacity:1;stroke-width:0.264583"
         id="path931" />
      <path
         d="m 102.25263,87.040198 c -1.00472,0 -1.78365,0.395112 -2.22392,1.083735 v -3.476982 h -0.801509 v 8.376364 h 0.801509 v -3.115736 c 0,-1.354668 0.80152,-2.144891 2.07716,-2.144891 1.12889,0 1.78365,0.643467 1.78365,1.896535 v 3.364092 h 0.80151 v -3.443114 c 0,-1.704624 -0.99342,-2.540003 -2.4384,-2.540003 z"
         style="font-style:normal;font-variant:normal;font-weight:normal;font-stretch:normal;font-size:11.2889px;font-family:Montserrat;-inkscape-font-specification:Montserrat;fill:#ff0024;fill-opacity:1;stroke-width:0.264583"
         id="path933" />
      <path
         d="m 112.05137,90.054335 c 0,-1.783647 -1.20791,-3.014137 -2.87867,-3.014137 -1.67075,0 -2.90124,1.253068 -2.90124,3.014137 0,1.761068 1.26435,3.025425 3.11573,3.025425 0.93698,0 1.76107,-0.338667 2.29165,-0.970846 l -0.45156,-0.519289 c -0.45155,0.519289 -1.09502,0.778934 -1.81751,0.778934 -1.29822,0 -2.24649,-0.82409 -2.3368,-2.065869 h 4.96711 c 0,-0.09031 0.0113,-0.180622 0.0113,-0.248355 z m -2.87867,-2.325514 c 1.16276,0 2.00943,0.812801 2.11103,1.975558 h -4.21076 c 0.1016,-1.162757 0.94827,-1.975558 2.09973,-1.975558 z"
         style="font-style:normal;font-variant:normal;font-weight:normal;font-stretch:normal;font-size:11.2889px;font-family:Montserrat;-inkscape-font-specification:Montserrat;fill:#ff0024;fill-opacity:1;stroke-width:0.264583"
         id="path935" />
      <path
         d="m 122.23393,85.843575 v -0.72249 h -5.41867 v 7.90223 h 0.83538 v -3.352803 h 4.08658 v -0.72249 h -4.08658 v -3.104447 z"
         style="font-style:normal;font-variant:normal;font-weight:normal;font-stretch:normal;font-size:11.2889px;font-family:Montserrat;-inkscape-font-specification:Montserrat;fill:#ff0024;fill-opacity:1;stroke-width:0.264583"
         id="path937" />
      <path
         d="m 126.01569,93.07976 c 1.73849,0 3.01414,-1.264357 3.01414,-3.025425 0,-1.761069 -1.27565,-3.014137 -3.01414,-3.014137 -1.73849,0 -3.02543,1.253068 -3.02543,3.014137 0,1.761068 1.28694,3.025425 3.02543,3.025425 z m 0,-0.711201 c -1.26436,0 -2.21263,-0.92569 -2.21263,-2.314224 0,-1.388535 0.94827,-2.314225 2.21263,-2.314225 1.26436,0 2.20133,0.92569 2.20133,2.314225 0,1.388534 -0.93697,2.314224 -2.20133,2.314224 z"
         style="font-style:normal;font-variant:normal;font-weight:normal;font-stretch:normal;font-size:11.2889px;font-family:Montserrat;-inkscape-font-specification:Montserrat;fill:#ff0024;fill-opacity:1;stroke-width:0.264583"
         id="path939" />
      <path
         d="m 131.43435,88.248111 v -1.162757 h -0.76765 v 5.937961 h 0.80151 V 89.99789 c 0,-1.399824 0.75636,-2.190047 1.99814,-2.190047 0.0564,0 0.12418,0.01129 0.19191,0.01129 v -0.778934 c -1.09502,0 -1.85138,0.41769 -2.22391,1.207913 z"
         style="font-style:normal;font-variant:normal;font-weight:normal;font-stretch:normal;font-size:11.2889px;font-family:Montserrat;-inkscape-font-specification:Montserrat;fill:#ff0024;fill-opacity:1;stroke-width:0.264583"
         id="path941" />
      <path
         d="m 137.50776,93.07976 c 1.00471,0 1.85138,-0.4064 2.32552,-1.174046 l -0.59832,-0.4064 c -0.4064,0.598312 -1.03858,0.869245 -1.7272,0.869245 -1.29822,0 -2.24649,-0.914401 -2.24649,-2.314224 0,-1.388535 0.94827,-2.314225 2.24649,-2.314225 0.68862,0 1.3208,0.282223 1.7272,0.880534 l 0.59832,-0.4064 c -0.47414,-0.778934 -1.32081,-1.174046 -2.32552,-1.174046 -1.77236,0 -3.05929,1.241779 -3.05929,3.014137 0,1.772357 1.28693,3.025425 3.05929,3.025425 z"
         style="font-style:normal;font-variant:normal;font-weight:normal;font-stretch:normal;font-size:11.2889px;font-family:Montserrat;-inkscape-font-specification:Montserrat;fill:#ff0024;fill-opacity:1;stroke-width:0.264583"
         id="path943" />
      <path
         d="m 146.48242,90.054335 c 0,-1.783647 -1.20791,-3.014137 -2.87867,-3.014137 -1.67075,0 -2.90124,1.253068 -2.90124,3.014137 0,1.761068 1.26435,3.025425 3.11573,3.025425 0.93698,0 1.76107,-0.338667 2.29165,-0.970846 l -0.45156,-0.519289 c -0.45155,0.519289 -1.09502,0.778934 -1.81751,0.778934 -1.29822,0 -2.24649,-0.82409 -2.3368,-2.065869 h 4.96711 c 0,-0.09031 0.0113,-0.180622 0.0113,-0.248355 z m -2.87867,-2.325514 c 1.16276,0 2.00943,0.812801 2.11103,1.975558 h -4.21076 c 0.1016,-1.162757 0.94827,-1.975558 2.09973,-1.975558 z"
         style="font-style:normal;font-variant:normal;font-weight:normal;font-stretch:normal;font-size:11.2889px;font-family:Montserrat;-inkscape-font-specification:Montserrat;fill:#ff0024;fill-opacity:1;stroke-width:0.264583"
         id="path945" />
    </g>
  </g>
</svg>
